<svg xmlns="http://www.w3.org/2000/svg" xmlns:xlink="http://www.w3.org/1999/xlink" width="136" height="136" viewBox="0 0 136 136"><defs><style>.a{fill:#fff;stroke:#036daa;stroke-width:0.1px;}.b{fill:#398aef;}.c{stroke:none;}.d{fill:none;}.e{filter:url(#a);}</style><filter id="a" x="0" y="0" width="136" height="136" filterUnits="userSpaceOnUse"><feOffset dy="3" input="SourceAlpha"/><feGaussianBlur stdDeviation="3" result="b"/><feFlood flood-color="#398aef" flood-opacity="0.161"/><feComposite operator="in" in2="b"/><feComposite in="SourceGraphic"/></filter></defs><g transform="translate(-674 -1029)"><g class="e" transform="matrix(1, 0, 0, 1, 674, 1029)"><g class="a" transform="translate(9 6)"><circle class="c" cx="59" cy="59" r="59"/><circle class="d" cx="59" cy="59" r="58.95"/></g></g><g transform="translate(717 1069)"><path class="b" d="M48.581,42.234H44.145a.414.414,0,0,1-.4-.423.436.436,0,0,1,.081-.254,12.75,12.75,0,0,0,2.339-7.363v-.423a4.14,4.14,0,0,0-4.032-4.232,1.656,1.656,0,0,0-1.613,1.693v1.46a8.04,8.04,0,0,1-2.2,5.578,7.567,7.567,0,0,1-1.585,1.27l-4.492,2.694h-2.2V40.542H15.5a8.685,8.685,0,0,0,1.628-5.078A8.281,8.281,0,0,0,9.065,27,8.281,8.281,0,0,0,1,35.463a8.281,8.281,0,0,0,8.065,8.463,7.687,7.687,0,0,0,3.226-.712V57.468H30.032V55.776H32.3l4.032,1.693H48.581A2.484,2.484,0,0,0,51,54.929a2.593,2.593,0,0,0-.629-1.693,2.592,2.592,0,0,0,0-3.385,2.592,2.592,0,0,0,0-3.385A2.589,2.589,0,0,0,51,44.773a2.484,2.484,0,0,0-2.419-2.539ZM2.613,35.463a6.625,6.625,0,0,1,6.452-6.771,6.625,6.625,0,0,1,6.452,6.771A6.941,6.941,0,0,1,14.09,39.7a6.5,6.5,0,0,0-2.364-1.928,4.3,4.3,0,0,0,1.37-3.153,4.14,4.14,0,0,0-4.032-4.232,4.14,4.14,0,0,0-4.032,4.232A4.3,4.3,0,0,0,6.4,37.771,6.519,6.519,0,0,0,4.039,39.7a6.941,6.941,0,0,1-1.426-4.235Zm4.032-.846a2.484,2.484,0,0,1,2.419-2.539,2.542,2.542,0,0,1,0,5.078A2.484,2.484,0,0,1,6.645,34.617ZM5.2,40.872a4.7,4.7,0,0,1,7.729,0,6.164,6.164,0,0,1-7.729,0Zm8.7,1.362h11.29V55.776H13.9ZM28.419,55.776H26.806V42.234h1.613Zm20.161,0H36.639l-4.032-1.693H30.032V43.927h2.634l4.863-2.917a9.173,9.173,0,0,0,1.926-1.544,9.763,9.763,0,0,0,2.674-6.775v-1.46a2.484,2.484,0,0,1,2.419,2.539v.423a11,11,0,0,1-2.017,6.348,2.2,2.2,0,0,0-.4,1.269,2.071,2.071,0,0,0,2.016,2.116h4.435a.847.847,0,0,1,0,1.693H44.548v1.693h4.032a.847.847,0,0,1,0,1.693H44.548V50.7h4.032a.847.847,0,0,1,0,1.693H44.548v1.693h4.032a.847.847,0,0,1,0,1.693Z" transform="translate(-1 -7.468)"/><path class="b" d="M51.463,24.927A8.463,8.463,0,1,0,43,16.463,8.473,8.473,0,0,0,51.463,24.927Zm-4.056-3.054a5.076,5.076,0,0,1,8.111,0,6.72,6.72,0,0,1-8.111,0Zm1.517-6.255a2.539,2.539,0,1,1,2.539,2.539A2.542,2.542,0,0,1,48.924,15.617Zm2.539-5.924A6.763,6.763,0,0,1,56.738,20.7a6.768,6.768,0,0,0-2.481-1.928,4.232,4.232,0,1,0-5.588,0A6.786,6.786,0,0,0,46.189,20.7,6.763,6.763,0,0,1,51.463,9.693Z" transform="translate(-9.927 -2.076)"/><path class="b" d="M24.849,24.7A11.849,11.849,0,1,0,13,12.849,11.862,11.862,0,0,0,24.849,24.7Zm0-1.693a10.123,10.123,0,0,1-7.277-3.087,7.571,7.571,0,0,1,2.054-3.313l1.325,5.3,3.9-2.922,3.9,2.923,1.325-5.3a7.587,7.587,0,0,1,2.054,3.313A10.125,10.125,0,0,1,24.849,23ZM21.463,9.463a3.385,3.385,0,1,1,3.385,3.385A3.389,3.389,0,0,1,21.463,9.463ZM24.849,16.6,23.27,14.711a7.444,7.444,0,0,1,3.157,0Zm3.3-1.313c.153.073.3.149.451.232l-.875,3.5-1.653-1.24Zm-6.595,0,2.077,2.492-1.653,1.24-.875-3.5C21.248,15.44,21.4,15.365,21.551,15.292Zm3.3-12.6a10.142,10.142,0,0,1,8.508,15.684,9.266,9.266,0,0,0-5.32-4.966,5.078,5.078,0,1,0-6.377,0,9.263,9.263,0,0,0-5.32,4.966A10.143,10.143,0,0,1,24.849,2.693Z" transform="translate(-3.717 -1)"/><path class="b" d="M23,31h1.693v1.693H23Z" transform="translate(-5.287 -6.846)"/><path class="b" d="M27,31H40.542v1.693H27Z" transform="translate(-6.393 -6.846)"/><path class="b" d="M23,35H39.927v1.693H23Z" transform="translate(-5.676 -7.626)"/><path class="b" d="M23,39H38.234v1.693H23Z" transform="translate(-5.617 -8.405)"/><path class="b" d="M19,57h1.693v1.693H19Z" transform="translate(-4.508 -12.078)"/><path class="b" d="M23,57h1.693v1.693H23Z" transform="translate(-5.287 -12.078)"/><path class="b" d="M27,57h1.693v1.693H27Z" transform="translate(-6.067 -12.078)"/></g></g></svg>