<svg xmlns="http://www.w3.org/2000/svg" xmlns:xlink="http://www.w3.org/1999/xlink" width="840" height="288" viewBox="0 0 840 288"><defs><style>.a{fill:#002757;font-size:48px;}.a,.b{font-family:Montserrat-SemiBold, Montserrat;font-weight:600;}.b,.d,.e{fill:#398aef;}.b{font-size:16px;}.c{fill:#fff;stroke:#036daa;stroke-width:0.1px;}.e,.f{stroke:#707070;}.f{fill:#036daa;}.g{stroke:none;}.h{fill:none;}.i{filter:url(#g);}.j{filter:url(#e);}.k{filter:url(#c);}.l{filter:url(#a);}</style><filter id="a" x="27" y="92" width="136" height="136" filterUnits="userSpaceOnUse"><feOffset dy="3" input="SourceAlpha"/><feGaussianBlur stdDeviation="3" result="b"/><feFlood flood-color="#398aef" flood-opacity="0.161"/><feComposite operator="in" in2="b"/><feComposite in="SourceGraphic"/></filter><filter id="c" x="460" y="92" width="136" height="136" filterUnits="userSpaceOnUse"><feOffset dy="3" input="SourceAlpha"/><feGaussianBlur stdDeviation="3" result="d"/><feFlood flood-color="#398aef" flood-opacity="0.161"/><feComposite operator="in" in2="d"/><feComposite in="SourceGraphic"/></filter><filter id="e" x="244" y="92" width="136" height="136" filterUnits="userSpaceOnUse"><feOffset dy="3" input="SourceAlpha"/><feGaussianBlur stdDeviation="3" result="f"/><feFlood flood-color="#398aef" flood-opacity="0.161"/><feComposite operator="in" in2="f"/><feComposite in="SourceGraphic"/></filter><filter id="g" x="677" y="92" width="136" height="136" filterUnits="userSpaceOnUse"><feOffset dy="3" input="SourceAlpha"/><feGaussianBlur stdDeviation="3" result="h"/><feFlood flood-color="#398aef" flood-opacity="0.161"/><feComposite operator="in" in2="h"/><feComposite in="SourceGraphic"/></filter></defs><g transform="translate(-263 -895)"><text class="a" transform="translate(540 895)"><tspan x="8.432" y="46">Our Values</tspan></text><g transform="translate(0 93)"><text class="b" transform="translate(263 1042)"><tspan x="28.12" y="15" xml:space="preserve"> Good Customer </tspan><tspan x="54.128" y="35">Retention</tspan></text><g transform="translate(-117 12)"><g class="l" transform="matrix(1, 0, 0, 1, 380, 790)"><g class="c" transform="translate(36 98)"><circle class="g" cx="59" cy="59" r="59"/><circle class="h" cx="59" cy="59" r="58.95"/></g></g><g transform="translate(449.003 921.002)"><path class="d" d="M46.966,25.192H42.934V17.1a9.328,9.328,0,0,0,4.674-4.786l3.161-7.377a2.822,2.822,0,1,0-5.188-2.225L42.419,10.09a3.617,3.617,0,0,1-.836,1.193,4.793,4.793,0,0,0,.544-2.218,4.839,4.839,0,1,0-8.351,3.318,8.658,8.658,0,0,0-4.5,2.052c-.055-.018-.106-.042-.161-.059a4.839,4.839,0,1,0-6.229,0c-.055.017-.107.041-.161.059a8.656,8.656,0,0,0-4.5-2.052,4.838,4.838,0,1,0-7.807-1.1,3.617,3.617,0,0,1-.836-1.193L6.416,2.712A2.822,2.822,0,1,0,1.228,4.934l3.161,7.379A9.334,9.334,0,0,0,9.063,17.1v8.093H5.032A4.037,4.037,0,0,0,1,29.225V46.966A4.037,4.037,0,0,0,5.032,51H46.966A4.037,4.037,0,0,0,51,46.966V29.225a4.037,4.037,0,0,0-4.032-4.032ZM37.289,5.838a3.226,3.226,0,1,1-3.226,3.226A3.229,3.229,0,0,1,37.289,5.838ZM34.958,13.9h4.126A5.236,5.236,0,0,0,43.9,10.726l3.163-7.381a1.22,1.22,0,0,1,1.6-.631A1.208,1.208,0,0,1,49.287,4.3l-3.162,7.379a7.7,7.7,0,0,1-4.288,4.133l-.517.2v9.182H36.482v-.806a10.491,10.491,0,0,0-5.522-9.231,7.041,7.041,0,0,1,4-1.252ZM30.837,21.16v4.032H21.305l.65-3.9-1.591-.265L19.519,26.1l2.357,5.5a1.125,1.125,0,0,1,.09.44v.1a1.117,1.117,0,0,1-2.154.415L17.67,27.2a7.531,7.531,0,0,1-.542-2.811,8.878,8.878,0,0,1,5.7-8.276,3.22,3.22,0,0,0,6.332,0,8.878,8.878,0,0,1,5.7,8.276v.806H32.45V21.16ZM17.711,31.644H10.676v12.9H26.8v-12.9H23.54a2.7,2.7,0,0,0-.181-.681l-.4-.932H39.708V46.159H9.064V30.031h8Zm5.623,1.613h1.858v9.677h-12.9V33.257h6.076a2.72,2.72,0,0,0,4.968,0ZM26,15.515a8.844,8.844,0,0,1,1.6.152,1.6,1.6,0,0,1-3.2,0A8.844,8.844,0,0,1,26,15.515Zm-3.226-4.839A3.226,3.226,0,1,1,26,13.9,3.229,3.229,0,0,1,22.773,10.677ZM14.709,5.838a3.226,3.226,0,1,1-3.226,3.226A3.229,3.229,0,0,1,14.709,5.838ZM10.16,15.811a7.7,7.7,0,0,1-4.288-4.133L2.71,4.3a1.208,1.208,0,0,1,.631-1.586,1.226,1.226,0,0,1,1.592.634L8.1,10.726A5.237,5.237,0,0,0,12.914,13.9h4.126a7.042,7.042,0,0,1,4,1.252,10.494,10.494,0,0,0-5.522,9.232c0,.27.015.539.038.806H10.676V16.01ZM2.612,34.869h.806a.807.807,0,0,1,.806.806v4.839a.807.807,0,0,1-.806.806H2.612Zm0,12.1V42.934h.806a2.422,2.422,0,0,0,2.419-2.419V35.676a2.422,2.422,0,0,0-2.419-2.419H2.612V29.224a2.422,2.422,0,0,1,2.419-2.419H15.846a9.3,9.3,0,0,0,.326.991l.249.622H9.064a1.614,1.614,0,0,0-1.613,1.613V46.159a1.614,1.614,0,0,0,1.613,1.613H39.708a1.614,1.614,0,0,0,1.613-1.613V30.031a1.614,1.614,0,0,0-1.613-1.613H22.268l-.691-1.613H42.934v22.58H5.032A2.422,2.422,0,0,1,2.612,46.966Zm46.773,0a2.422,2.422,0,0,1-2.419,2.419H44.546V26.805h2.419a2.422,2.422,0,0,1,2.419,2.419Z"/><path class="d" d="M57,43h1.613v6.451H57Z" transform="translate(-10.841 -8.131)"/><path class="d" d="M35,39h9.677v1.613H35Z" transform="translate(-6.582 -7.356)"/><path class="d" d="M35,43h9.677v1.613H35Z" transform="translate(-6.582 -8.131)"/><path class="d" d="M35,47h1.613v1.613H35Z" transform="translate(-6.582 -8.905)"/><path class="d" d="M39,47h6.451v1.613H39Z" transform="translate(-7.356 -8.905)"/><path class="d" d="M35,51h9.677v1.613H35Z" transform="translate(-6.582 -9.679)"/></g></g></g><g transform="translate(13 93)"><text class="b" transform="translate(683 1042)"><tspan x="31.336" y="15">Meet Customer </tspan><tspan x="59.12" y="35">Demand</tspan></text><g transform="translate(-49 21)"><g class="k" transform="matrix(1, 0, 0, 1, 299, 781)"><g class="c" transform="translate(469 98)"><circle class="g" cx="59" cy="59" r="59"/><circle class="h" cx="59" cy="59" r="58.95"/></g></g><g transform="translate(802 913)"><path class="d" d="M51,11.217v-.54a9.677,9.677,0,0,0-19.355,0v.54a9.638,9.638,0,0,0,1.626,5.368L37.214,22.5c-2.468.7-3.956,1.989-3.956,3.5V36.414a9.34,9.34,0,0,0-3.226-1.226V30.562a4.007,4.007,0,0,0-1.181-2.852l-5.27-5.27V17.822a8.956,8.956,0,0,0,7.258-8.8v-5.2a2.823,2.823,0,1,0-5.645,0V7.911a4.017,4.017,0,0,1-2.839,3.849,5.646,5.646,0,1,0-8.27.614,12.164,12.164,0,0,0-9,5.789l-3.7,6.165A2.7,2.7,0,0,0,3.7,28.419h.318a2.7,2.7,0,0,0,2.247-1.2l4.994-7.492a2.2,2.2,0,0,1,1.03-.831V27.5l-3.1,10.867c0,.008,0,.016,0,.023-3.072.6-4.955,2.009-4.955,3.739v4.839c0,2.3,3.467,4.032,8.065,4.032,3.281,0,5.977-.885,7.258-2.226C20.829,50.115,23.526,51,26.806,51s5.977-.885,7.258-2.226C35.345,50.115,38.042,51,41.323,51c4.6,0,8.065-1.733,8.065-4.032V26c0-1.514-1.488-2.8-3.956-3.5l3.943-5.915A9.642,9.642,0,0,0,51,11.217ZM30,36.833c2.123.493,3.261,1.389,3.261,2.07,0,.987-2.513,2.419-6.452,2.419S20.355,39.89,20.355,38.9c0-.681,1.138-1.577,3.261-2.07a3.207,3.207,0,0,0,6.381,0ZM18.742,39.644A8.95,8.95,0,0,0,15.894,38.5l3.411-10.8,4.275,4.185v3.306c-3,.615-4.839,2.008-4.839,3.715ZM18.719,20.85l-.784.784-.784-.784.464-6.95h.247c.025,0,.048,0,.073,0s.052,0,.077,0h.006c.08,0,.157-.007.236-.012ZM13.9,8.258a4.032,4.032,0,1,1,4.032,4.032A4.037,4.037,0,0,1,13.9,8.258ZM10.677,39.229a1.5,1.5,0,0,1,.059-.419l3.136-10.977.031-10.7H13.1a3.813,3.813,0,0,0-3.178,1.7L4.924,26.322a1.088,1.088,0,0,1-.906.485H3.7a1.088,1.088,0,0,1-.934-1.648l3.7-6.165a10.537,10.537,0,0,1,8.99-5.09H16l-.5,7.57,2.442,2.442,2.442-2.442-.518-7.758,1.863-.186a5.627,5.627,0,0,0,5.084-5.617V3.823a1.21,1.21,0,1,1,2.419,0v5.2a7.346,7.346,0,0,1-6.54,7.308l-.718.079v6.7l5.743,5.743a2.4,2.4,0,0,1,.709,1.711v5.922a1.613,1.613,0,1,1-3.226,0v-4.6a1.623,1.623,0,0,0-.485-1.153L19.877,26H18.151l-4.5,14.26a1.52,1.52,0,0,1-2.97-.459ZM9.09,40.06a3.124,3.124,0,0,0,6.1.685l.22-.7c2.165.492,3.336,1.4,3.336,2.082,0,.987-2.513,2.419-6.452,2.419s-6.452-1.432-6.452-2.419C5.839,41.448,6.973,40.554,9.09,40.06Zm3.2,9.327c-3.939,0-6.452-1.432-6.452-2.419V44.6a12.041,12.041,0,0,0,6.452,1.561A12.041,12.041,0,0,0,18.742,44.6v2.368C18.742,47.955,16.229,49.387,12.29,49.387Zm14.516,0c-3.939,0-6.452-1.432-6.452-2.419V41.374a12.041,12.041,0,0,0,6.452,1.561,12.041,12.041,0,0,0,6.452-1.561v5.594C33.258,47.955,30.745,49.387,26.806,49.387Zm14.516,0c-3.939,0-6.452-1.432-6.452-2.419v-18.5a12.041,12.041,0,0,0,6.452,1.561,12.041,12.041,0,0,0,6.452-1.561v18.5C47.774,47.955,45.261,49.387,41.323,49.387ZM47.774,26c0,.987-2.513,2.419-6.452,2.419S34.871,26.987,34.871,26c0-.664,1.16-1.575,3.3-2.071L39.4,25.776a2.313,2.313,0,0,0,3.849,0l1.231-1.847c2.136.5,3.3,1.4,3.3,2.07Zm-5.869-1.119a.726.726,0,0,1-1.165,0L34.613,15.69a8.033,8.033,0,0,1-1.355-4.473v-.54a8.065,8.065,0,1,1,16.129,0v.54a8.037,8.037,0,0,1-1.355,4.473Z" transform="translate(-1 -1)"/><path class="d" d="M49.771,5a6.771,6.771,0,1,0,6.771,6.771A6.779,6.779,0,0,0,49.771,5Zm0,11.849a5.078,5.078,0,1,1,5.078-5.078A5.083,5.083,0,0,1,49.771,16.849Z" transform="translate(-9.927 -1.615)"/><path class="d" d="M45,39h1.693v1.693H45Z" transform="translate(-9.575 -8.405)"/><path class="d" d="M45,43h1.693V54.849H45Z" transform="translate(-9.575 -9.927)"/></g></g></g><g transform="translate(-13 93)"><text class="b" transform="translate(493 1042)"><tspan x="30.328" y="15">Good Customer </tspan><tspan x="46.472" y="35">Satisfaction</tspan></text><g transform="translate(-154 -135)"><g class="j" transform="matrix(1, 0, 0, 1, 430, 937)"><g class="c" transform="translate(253 98)"><circle class="g" cx="59" cy="59" r="59"/><circle class="h" cx="59" cy="59" r="58.95"/></g></g><g transform="translate(717 1069)"><path class="d" d="M48.581,42.234H44.145a.414.414,0,0,1-.4-.423.436.436,0,0,1,.081-.254,12.75,12.75,0,0,0,2.339-7.363v-.423a4.14,4.14,0,0,0-4.032-4.232,1.656,1.656,0,0,0-1.613,1.693v1.46a8.04,8.04,0,0,1-2.2,5.578,7.567,7.567,0,0,1-1.585,1.27l-4.492,2.694h-2.2V40.542H15.5a8.685,8.685,0,0,0,1.628-5.078A8.281,8.281,0,0,0,9.065,27,8.281,8.281,0,0,0,1,35.463a8.281,8.281,0,0,0,8.065,8.463,7.687,7.687,0,0,0,3.226-.712V57.468H30.032V55.776H32.3l4.032,1.693H48.581A2.484,2.484,0,0,0,51,54.929a2.593,2.593,0,0,0-.629-1.693,2.592,2.592,0,0,0,0-3.385,2.592,2.592,0,0,0,0-3.385A2.589,2.589,0,0,0,51,44.773a2.484,2.484,0,0,0-2.419-2.539ZM2.613,35.463a6.625,6.625,0,0,1,6.452-6.771,6.625,6.625,0,0,1,6.452,6.771A6.941,6.941,0,0,1,14.09,39.7a6.5,6.5,0,0,0-2.364-1.928,4.3,4.3,0,0,0,1.37-3.153,4.14,4.14,0,0,0-4.032-4.232,4.14,4.14,0,0,0-4.032,4.232A4.3,4.3,0,0,0,6.4,37.771,6.519,6.519,0,0,0,4.039,39.7a6.941,6.941,0,0,1-1.426-4.235Zm4.032-.846a2.484,2.484,0,0,1,2.419-2.539,2.542,2.542,0,0,1,0,5.078A2.484,2.484,0,0,1,6.645,34.617ZM5.2,40.872a4.7,4.7,0,0,1,7.729,0,6.164,6.164,0,0,1-7.729,0Zm8.7,1.362h11.29V55.776H13.9ZM28.419,55.776H26.806V42.234h1.613Zm20.161,0H36.639l-4.032-1.693H30.032V43.927h2.634l4.863-2.917a9.173,9.173,0,0,0,1.926-1.544,9.763,9.763,0,0,0,2.674-6.775v-1.46a2.484,2.484,0,0,1,2.419,2.539v.423a11,11,0,0,1-2.017,6.348,2.2,2.2,0,0,0-.4,1.269,2.071,2.071,0,0,0,2.016,2.116h4.435a.847.847,0,0,1,0,1.693H44.548v1.693h4.032a.847.847,0,0,1,0,1.693H44.548V50.7h4.032a.847.847,0,0,1,0,1.693H44.548v1.693h4.032a.847.847,0,0,1,0,1.693Z" transform="translate(-1 -7.468)"/><path class="d" d="M51.463,24.927A8.463,8.463,0,1,0,43,16.463,8.473,8.473,0,0,0,51.463,24.927Zm-4.056-3.054a5.076,5.076,0,0,1,8.111,0,6.72,6.72,0,0,1-8.111,0Zm1.517-6.255a2.539,2.539,0,1,1,2.539,2.539A2.542,2.542,0,0,1,48.924,15.617Zm2.539-5.924A6.763,6.763,0,0,1,56.738,20.7a6.768,6.768,0,0,0-2.481-1.928,4.232,4.232,0,1,0-5.588,0A6.786,6.786,0,0,0,46.189,20.7,6.763,6.763,0,0,1,51.463,9.693Z" transform="translate(-9.927 -2.076)"/><path class="d" d="M24.849,24.7A11.849,11.849,0,1,0,13,12.849,11.862,11.862,0,0,0,24.849,24.7Zm0-1.693a10.123,10.123,0,0,1-7.277-3.087,7.571,7.571,0,0,1,2.054-3.313l1.325,5.3,3.9-2.922,3.9,2.923,1.325-5.3a7.587,7.587,0,0,1,2.054,3.313A10.125,10.125,0,0,1,24.849,23ZM21.463,9.463a3.385,3.385,0,1,1,3.385,3.385A3.389,3.389,0,0,1,21.463,9.463ZM24.849,16.6,23.27,14.711a7.444,7.444,0,0,1,3.157,0Zm3.3-1.313c.153.073.3.149.451.232l-.875,3.5-1.653-1.24Zm-6.595,0,2.077,2.492-1.653,1.24-.875-3.5C21.248,15.44,21.4,15.365,21.551,15.292Zm3.3-12.6a10.142,10.142,0,0,1,8.508,15.684,9.266,9.266,0,0,0-5.32-4.966,5.078,5.078,0,1,0-6.377,0,9.263,9.263,0,0,0-5.32,4.966A10.143,10.143,0,0,1,24.849,2.693Z" transform="translate(-3.717 -1)"/><path class="d" d="M23,31h1.693v1.693H23Z" transform="translate(-5.287 -6.846)"/><path class="d" d="M27,31H40.542v1.693H27Z" transform="translate(-6.393 -6.846)"/><path class="d" d="M23,35H39.927v1.693H23Z" transform="translate(-5.676 -7.626)"/><path class="d" d="M23,39H38.234v1.693H23Z" transform="translate(-5.617 -8.405)"/><path class="d" d="M19,57h1.693v1.693H19Z" transform="translate(-4.508 -12.078)"/><path class="d" d="M23,57h1.693v1.693H23Z" transform="translate(-5.287 -12.078)"/><path class="d" d="M27,57h1.693v1.693H27Z" transform="translate(-6.067 -12.078)"/></g></g></g><g transform="translate(0 125)"><text class="b" transform="translate(913 1010)"><tspan x="30.328" y="15">Good Customer </tspan><tspan x="48.984" y="35">Experience</tspan></text></g><g transform="translate(15 139)"><g class="i" transform="matrix(1, 0, 0, 1, 248, 756)"><g class="c" transform="translate(686 98)"><circle class="g" cx="59" cy="59" r="59"/><circle class="h" cx="59" cy="59" r="58.95"/></g></g><g transform="translate(968 888)"><path class="e" d="M48.581,21.439H39.012L46.4,12.615,41.7,7H31.268l-4.7,5.615,7.393,8.824H24.387a2.405,2.405,0,0,0-.5,4.762,2.782,2.782,0,0,0-.26.755,2.891,2.891,0,0,0-.54.585l-4.152,6.2a4.831,4.831,0,0,1-3.476,2.11,5.649,5.649,0,1,0-7.648.282A8.842,8.842,0,0,0,1,44.7v7.22H18.742V41.3a9.385,9.385,0,0,0,4.852-3.6,6.46,6.46,0,0,0,5.527,6.083l.106.014v8.128H43.742V43.793l.106-.015a6.461,6.461,0,0,0,5.54-6.353V27.456a2.757,2.757,0,0,0-.311-1.255,2.405,2.405,0,0,0-.5-4.762ZM37.87,13.417l-1.386,5.517L35.1,13.417Zm-2.5-1.6L36.484,9.6,37.6,11.813Zm4.164,1.6h4.1l-5.857,6.991Zm.675-1.6,1.285-2.555,2.14,2.555Zm-1.3-.991L37.789,8.6h2.229Zm-4.839,0L32.95,8.6h2.229Zm-1.3.991H29.335l2.14-2.555Zm.675,1.6,1.757,6.991-5.857-6.991ZM11.484,39.245,10.3,37.483h2.363Zm2.981-1.554L13.5,42.023l-1.025-1.359ZM10.5,40.664l-1.025,1.36L8.5,37.691Zm-3.044-8.8a4.032,4.032,0,1,1,4.032,4.011A4.026,4.026,0,0,1,7.452,31.867Zm14.883,4.825a7.781,7.781,0,0,1-4.6,3.222l-.61.152V50.318H6.645V41.494H5.032v8.824H2.613V44.7a7.225,7.225,0,0,1,4.33-6.6l1.715,7.674,2.827-3.747,2.827,3.749,1.884-8.432a6.434,6.434,0,0,0,4.089-2.719l3.3-4.921v5.13Zm25.44.733a4.844,4.844,0,0,1-4.155,4.764l-1.49.213v7.915H30.839V42.4l-1.491-.213a4.844,4.844,0,0,1-4.154-4.764v-9.97a1.21,1.21,0,0,1,2.419,0v8.8a4.024,4.024,0,0,0,3.532,3.98l3.515.437-.627,6.738,2.451,2.438,2.451-2.438-.628-6.744,3.516-.432a4.024,4.024,0,0,0,3.532-3.98v-8.8a1.21,1.21,0,0,1,2.419,0ZM37.259,46.808l-.775.771-.775-.771.569-6.12h.143c.021,0,.042,0,.063,0h.206Zm-.775-7.721a4.011,4.011,0,1,1,4.032-4.011A4.026,4.026,0,0,1,36.484,39.087Zm0-9.626a5.637,5.637,0,0,0-5.645,5.615,5.565,5.565,0,0,0,1.388,3.676l-.881-.11a2.414,2.414,0,0,1-2.119-2.387v-8.8a2.767,2.767,0,0,0-.283-1.2H44.025a2.767,2.767,0,0,0-.283,1.2v8.8a2.415,2.415,0,0,1-2.119,2.388l-.881.11a5.569,5.569,0,0,0,1.388-3.676,5.637,5.637,0,0,0-5.645-5.615Zm12.1-4.813H24.387a.8.8,0,1,1,0-1.6H48.581a.8.8,0,1,1,0,1.6Z" transform="translate(-1 -1.922)"/><path class="f" d="M44,1h1.693V4.385H44Z" transform="translate(-9.38 -1)"/><path class="f" d="M0,0H1.693V3.591H0Z" transform="translate(24.334 3.14) rotate(-45)"/><path class="f" d="M27,16h3.385v1.693H27Z" transform="translate(-6.104 -3.923)"/><path class="f" d="M59,16h3.385v1.693H59Z" transform="translate(-12.385 -3.923)"/><path class="f" d="M0,0H3.591V1.693H0Z" transform="translate(42.625 4.484) rotate(-45)"/><path class="f" d="M16,16h1.693v1.693H16Z" transform="translate(-3.923 -3.923)"/><path class="f" d="M14,18h1.693v1.693H14Z" transform="translate(-3.533 -4.313)"/><path class="f" d="M16,20h1.693v1.693H16Z" transform="translate(-3.923 -4.703)"/><path class="f" d="M18,18h1.693v1.693H18Z" transform="translate(-4.313 -4.313)"/><path class="f" d="M26,7h1.693V8.693H26Z" transform="translate(-5.872 -1.922)"/><path class="f" d="M24,9h1.693v1.693H24Z" transform="translate(-5.482 -2.229)"/><path class="f" d="M26,11h1.693v1.693H26Z" transform="translate(-5.872 -2.537)"/><path class="f" d="M28,9h1.693v1.693H28Z" transform="translate(-6.262 -2.229)"/><path class="f" d="M16,3h1.693V4.693H16Z" transform="translate(-3.923 -1.307)"/><path class="f" d="M14,5h1.693V6.693H14Z" transform="translate(-3.533 -1.615)"/><path class="f" d="M16,7h1.693V8.693H16Z" transform="translate(-3.923 -1.922)"/><path class="f" d="M18,5h1.693V6.693H18Z" transform="translate(-4.313 -1.615)"/><path class="f" d="M8,22H9.693v1.693H8Z" transform="translate(-2.076 -5.092)"/><path class="f" d="M6,24H7.693v1.693H6Z" transform="translate(-1.768 -5.482)"/><path class="f" d="M8,26H9.693v1.693H8Z" transform="translate(-2.076 -5.872)"/><path class="f" d="M10,24h1.693v1.693H10Z" transform="translate(-2.383 -5.482)"/></g></g></g></svg>